<svg width="2772" height="579" viewBox="0 0 2772 579" fill="none" xmlns="http://www.w3.org/2000/svg">
<path d="M189.544 128.557L128.667 128.557L0 457.593H65.3744L93.6894 381.112H232.766L261.081 457.593H326.456L224.405 197.463H164.214L213.612 329.844H112.844L162.395 197.054L189.544 128.557Z" fill="white"/>
<path d="M336.462 457.593V225.209H392.259V256.725H394.341C403.919 232.352 425.571 222.687 454.719 222.687H468.46V278.577H454.719C408.083 278.577 396.423 310.514 396.423 349.595V457.593H336.462Z" fill="white"/>
<path fill-rule="evenodd" clip-rule="evenodd" d="M468.382 342.031C468.382 416.831 514.186 464.737 586.223 464.737C647.433 464.737 690.322 431.959 696.984 381.952H637.856C634.108 403.804 614.538 418.512 586.223 418.512C554.993 418.512 533.756 397.921 529.592 361.361H697.817C697.929 358.659 698.04 356.257 698.144 354.029C698.427 347.942 698.65 343.14 698.65 336.988C698.65 261.768 652.846 218.065 585.806 218.065C513.769 218.065 468.382 266.391 468.382 342.031ZM635.774 318.919H530.009C534.173 284.46 554.576 264.71 585.806 264.71C614.954 264.71 633.692 284.46 635.774 318.919Z" fill="white"/>
<path d="M715.157 457.593V225.209H770.954V256.725H773.036C787.194 234.033 812.594 218.065 847.988 218.065C899.205 218.065 925.021 249.161 925.021 300.849V457.593H865.06V320.179C865.06 289.923 852.568 273.955 825.502 273.955C793.44 273.955 775.118 295.806 775.118 336.568V457.593H715.157Z" fill="white"/>
<path fill-rule="evenodd" clip-rule="evenodd" d="M939.678 397.501C939.678 440.364 969.659 464.737 1018.79 464.737C1052.94 464.737 1080.42 454.231 1094.58 429.858H1096.66V434.901C1096.66 450.449 1107.9 457.593 1126.22 457.593H1172.44V403.384H1157.04C1148.71 403.384 1147.04 400.442 1147.04 388.676V295.806C1147.04 241.597 1115.4 218.065 1049.61 218.065C985.482 218.065 949.672 244.959 947.173 294.125H1007.97C1009.22 273.955 1022.54 263.449 1049.19 263.449C1075.42 263.449 1087.5 273.955 1087.5 292.445C1087.5 312.195 1075.42 314.716 1029.2 322.701C970.075 331.946 939.678 352.957 939.678 397.501ZM1037.53 422.294C1015.05 422.294 1000.89 412.209 1000.89 392.458C1000.89 373.968 1014.21 365.564 1037.95 360.941C1062.1 356.319 1074.59 353.377 1087.08 344.973V376.069C1087.08 403.384 1065.85 422.294 1037.53 422.294Z" fill="white"/>
<path d="M1259.91 459V127.008H1398.98C1477.84 127.008 1520.24 166.016 1520.24 232.16C1520.24 299.576 1478.27 339.856 1398.98 339.856H1322.66V459H1259.91ZM1453.25 232.16C1453.25 202.904 1433.75 183.824 1394.32 183.824H1322.66V283.04H1394.32C1433.75 283.04 1453.25 262.688 1453.25 232.16ZM1534.92 459V127.008H1593.01V256.328H1595.13C1609.54 233.432 1634.13 217.32 1670.17 217.32C1722.33 217.32 1748.61 248.696 1748.61 300.848V459H1687.56V320.352C1687.56 289.824 1674.84 273.712 1647.28 273.712C1614.63 273.712 1595.55 295.76 1595.55 336.888V459H1534.92ZM1770.34 551.008V498.856H1797.9C1812.74 498.856 1816.98 495.04 1821.64 483.168L1831.39 459L1743.63 224.528H1809.77L1864.89 386.496H1867.01L1919.59 224.528H1985.31L1880.15 507.76C1867.86 540.832 1851.32 551.008 1818.67 551.008H1770.34ZM2079.52 466.208C2010.4 466.208 1976.06 436.952 1973.52 392.008H2035.42C2037.96 413.208 2052.38 422.536 2079.52 422.536C2108.35 422.536 2121.07 411.088 2121.07 393.704C2121.07 380.136 2110.89 372.928 2088.84 368.688L2050.26 360.632C2000.65 350.88 1976.91 328.832 1976.91 290.672C1976.91 247.848 2012.52 217.32 2079.52 217.32C2143.12 217.32 2180.85 245.728 2181.7 291.52H2120.22C2118.1 270.744 2104.53 260.568 2079.52 260.568C2054.08 260.568 2039.24 269.048 2039.24 286.008C2039.24 299.152 2048.99 305.512 2078.24 311.448L2111.74 318.232C2161.77 327.56 2183.4 349.184 2183.4 387.344C2183.4 434.832 2149.9 466.208 2079.52 466.208ZM2203.05 459V224.528H2264.11V459H2203.05ZM2200.93 186.368V133.792H2266.23V186.368H2200.93ZM2401.62 466.208C2328.27 466.208 2280.36 417.872 2280.36 341.976C2280.36 266.08 2328.69 217.32 2402.04 217.32C2465.22 217.32 2508.04 252.088 2513.98 310.6H2450.38C2445.29 286.432 2428.33 268.624 2401.2 268.624C2363.88 268.624 2343.53 298.728 2343.53 341.128C2343.53 383.528 2364.73 414.904 2402.89 414.904C2430.88 414.904 2448.68 396.248 2452.5 371.656H2515.68C2509.32 430.592 2464.8 466.208 2401.62 466.208ZM2598.44 466.208C2548.4 466.208 2517.88 441.616 2517.88 398.368C2517.88 353.424 2548.83 332.224 2609.04 322.896C2656.1 314.84 2668.4 312.296 2668.4 292.368C2668.4 273.712 2656.1 263.112 2629.39 263.112C2602.25 263.112 2588.68 273.712 2587.41 294.064H2525.51C2528.05 244.456 2564.52 217.32 2629.81 217.32C2696.8 217.32 2729.03 241.064 2729.03 295.76V389.464C2729.03 401.336 2730.72 404.304 2739.2 404.304H2754.89V459H2707.83C2689.17 459 2677.72 451.792 2677.72 436.104V431.016H2675.6C2661.19 455.608 2633.2 466.208 2598.44 466.208ZM2617.52 423.384C2646.35 423.384 2667.97 404.304 2667.97 376.744V345.368C2655.25 353.848 2642.53 356.816 2617.94 361.48C2593.77 366.144 2580.2 374.624 2580.2 393.28C2580.2 413.208 2594.62 423.384 2617.52 423.384Z" fill="white"/>
</svg>
